<svg width="18" height="18" viewBox="0 0 18 18" fill="none" xmlns="http://www.w3.org/2000/svg">
<g clip-path="url(#clip0_71_7770)">
<path d="M16.1251 3H14.5001V4H16.0001V15H2.00013V4H3.50013V3H1.87513C1.75825 3.00195 1.6429 3.02691 1.53566 3.07345C1.42843 3.11999 1.33141 3.1872 1.25016 3.27125C1.1689 3.35529 1.105 3.45451 1.0621 3.56325C1.0192 3.67199 0.998142 3.78812 1.00013 3.905V15.095C0.998142 15.2119 1.0192 15.328 1.0621 15.4367C1.105 15.5455 1.1689 15.6447 1.25016 15.7288C1.33141 15.8128 1.42843 15.88 1.53566 15.9265C1.6429 15.9731 1.75825 15.998 1.87513 16H16.1251C16.242 15.998 16.3574 15.9731 16.4646 15.9265C16.5718 15.88 16.6688 15.8128 16.7501 15.7288C16.8314 15.6447 16.8953 15.5455 16.9382 15.4367C16.9811 15.328 17.0021 15.2119 17.0001 15.095V3.905C17.0021 3.78812 16.9811 3.67199 16.9382 3.56325C16.8953 3.45451 16.8314 3.35529 16.7501 3.27125C16.6688 3.1872 16.5718 3.11999 16.4646 3.07345C16.3574 3.02691 16.242 3.00195 16.1251 3Z" fill="black"/>
<path d="M4 7H5V8H4V7Z" fill="black"/>
<path d="M7 7H8V8H7V7Z" fill="black"/>
<path d="M10 7H11V8H10V7Z" fill="black"/>
<path d="M13 7H14V8H13V7Z" fill="black"/>
<path d="M4 9.5H5V10.5H4V9.5Z" fill="black"/>
<path d="M7 9.5H8V10.5H7V9.5Z" fill="black"/>
<path d="M10 9.5H11V10.5H10V9.5Z" fill="black"/>
<path d="M13 9.5H14V10.5H13V9.5Z" fill="black"/>
<path d="M4 12H5V13H4V12Z" fill="black"/>
<path d="M7 12H8V13H7V12Z" fill="black"/>
<path d="M10 12H11V13H10V12Z" fill="black"/>
<path d="M13 12H14V13H13V12Z" fill="black"/>
<path d="M5 5C5.13261 5 5.25979 4.94732 5.35355 4.85355C5.44732 4.75979 5.5 4.63261 5.5 4.5V1.5C5.5 1.36739 5.44732 1.24021 5.35355 1.14645C5.25979 1.05268 5.13261 1 5 1C4.86739 1 4.74021 1.05268 4.64645 1.14645C4.55268 1.24021 4.5 1.36739 4.5 1.5V4.5C4.5 4.63261 4.55268 4.75979 4.64645 4.85355C4.74021 4.94732 4.86739 5 5 5Z" fill="black"/>
<path d="M13 5C13.1326 5 13.2598 4.94732 13.3536 4.85355C13.4473 4.75979 13.5 4.63261 13.5 4.5V1.5C13.5 1.36739 13.4473 1.24021 13.3536 1.14645C13.2598 1.05268 13.1326 1 13 1C12.8674 1 12.7402 1.05268 12.6464 1.14645C12.5527 1.24021 12.5 1.36739 12.5 1.5V4.5C12.5 4.63261 12.5527 4.75979 12.6464 4.85355C12.7402 4.94732 12.8674 5 13 5Z" fill="black"/>
<path d="M6.5 3H11.5V4H6.5V3Z" fill="black"/>
</g>
<defs>
<clipPath id="clip0_71_7770">
<rect width="18" height="18" fill="white"/>
</clipPath>
</defs>
</svg>
