<svg width="12" height="12" viewBox="0 0 12 12" fill="none" xmlns="http://www.w3.org/2000/svg">
<path d="M10.9172 8.93088L7.93405 5.94777L10.9172 2.96466C11.2832 2.59861 11.2832 2.00489 10.9172 1.63884L10.2542 0.975924C9.88819 0.609872 9.29447 0.609872 8.92842 0.975924L5.94531 3.95903L2.96221 0.975924C2.59615 0.609872 2.00243 0.609872 1.63638 0.975924L0.973468 1.63884C0.607416 2.00489 0.607416 2.59861 0.973468 2.96466L3.95657 5.94777L0.973468 8.93088C0.607416 9.29693 0.607416 9.89065 0.973468 10.2567L1.63638 10.9196C2.00243 11.2857 2.59615 11.2857 2.96221 10.9196L5.94531 7.93651L8.92842 10.9196C9.29447 11.2857 9.88819 11.2857 10.2542 10.9196L10.9172 10.2567C11.2832 9.89065 11.2832 9.29693 10.9172 8.93088Z" fill="#8E8E93"/>
</svg>
