<svg width="14" height="14" viewBox="0 0 14 14" fill="none" xmlns="http://www.w3.org/2000/svg">
<path d="M12.3333 10C12.687 10 13.0261 9.85952 13.2761 9.60948C13.5262 9.35943 13.6667 9.02029 13.6667 8.66667V1.33333C13.6667 0.979711 13.5262 0.640573 13.2761 0.390524C13.0261 0.140476 12.687 0 12.3333 0H5.30667C5.54 0.406667 5.66667 0.866667 5.66667 1.33333H12.3333V8.66667H6.33333V10M9 3.33333V4.66667H5V13.3333H3.66667V9.33333H2.33333V13.3333H1V8H0V4.66667C0 4.31304 0.140476 3.97391 0.390524 3.72386C0.640573 3.47381 0.979711 3.33333 1.33333 3.33333H9ZM4.33333 1.33333C4.33333 1.68696 4.19286 2.02609 3.94281 2.27614C3.69276 2.52619 3.35362 2.66667 3 2.66667C2.64638 2.66667 2.30724 2.52619 2.05719 2.27614C1.80714 2.02609 1.66667 1.68696 1.66667 1.33333C1.66667 0.979711 1.80714 0.640573 2.05719 0.390524C2.30724 0.140476 2.64638 0 3 0C3.35362 0 3.69276 0.140476 3.94281 0.390524C4.19286 0.640573 4.33333 0.979711 4.33333 1.33333Z" fill="#6B7280"/>
</svg>
