<?xml version="1.0" standalone="no"?>
<!DOCTYPE svg PUBLIC "-//W3C//DTD SVG 20010904//EN" "http://www.w3.org/TR/2001/REC-SVG-20010904/DTD/svg10.dtd">
<svg xmlns="http://www.w3.org/2000/svg" version="1.0" width="512.000000pt" height="512.000000pt" viewBox="0 0 512.000000 512.000000" preserveAspectRatio="xMidYMid meet">
<metadata>
Created by potrace 1.16, written by Peter Selinger 2001-2019
<meta name="Producer" content="Online-Convert"/></metadata>
<g transform="translate(0.000000,512.000000) scale(0.100000,-0.100000)" fill="#000000" stroke="none">
<path d="M2340 4621 c-488 -108 -832 -566 -795 -1060 34 -465 359 -838 812 -930 348 -71 716 47 953 306 355 389 356 993 1 1375 -98 105 -183 169 -306 228 -151 74 -229 92 -420 96 -129 3 -176 0 -245 -15z m355 -322 c241 -43 448 -235 526 -489 29 -95 32 -252 6 -350 -81 -304 -357 -520 -667 -520 -310 0 -586 216 -667 520 -26 98 -23 255 6 350 38 124 87 206 176 295 176 175 373 237 620 194z"/>
<path d="M1800 2293 c-87 -9 -208 -36 -288 -65 -487 -171 -822 -639 -822 -1148 0 -117 28 -228 81 -316 48 -82 144 -174 225 -216 134 -70 101 -68 1010 -68 794 0 820 1 848 20 72 47 96 146 54 221 -44 79 23 73 -878 79 -790 5 -806 5 -850 26 -60 28 -108 77 -138 143 -23 50 -24 62 -19 155 23 388 292 709 686 819 71 19 108 21 601 26 l525 6 34 24 c38 27 70 90 71 137 0 51 -40 115 -90 141 l-43 23 -486 -2 c-267 0 -502 -3 -521 -5z"/>
<path d="M3341 1890 c-47 -11 -100 -67 -112 -119 -19 -86 -6 -108 194 -308 l181 -183 -181 -182 c-200 -202 -213 -223 -194 -310 12 -54 71 -112 124 -122 82 -15 108 2 305 197 l182 181 183 -181 c153 -152 189 -183 225 -193 125 -33 235 78 201 203 -9 35 -41 72 -192 225 l-181 182 181 183 c151 152 183 189 192 224 34 125 -77 236 -202 202 -35 -9 -72 -41 -224 -192 l-183 -181 -182 181 c-207 205 -224 215 -317 193z"/>
</g>
</svg>
