<svg width="14" height="14" viewBox="0 0 14 14" fill="none" xmlns="http://www.w3.org/2000/svg">
<path d="M7 10.248C6.89267 10.248 6.79333 10.2303 6.702 10.195C6.61067 10.1597 6.52167 10.0983 6.435 10.011L3.815 7.39201C3.71767 7.29467 3.667 7.18001 3.663 7.04801C3.659 6.91601 3.70967 6.79501 3.815 6.68501C3.92567 6.57434 4.04467 6.51801 4.172 6.51601C4.3 6.51401 4.419 6.56834 4.529 6.67901L6.5 8.65001V0.500007C6.5 0.358007 6.54767 0.239007 6.643 0.143007C6.73833 0.047007 6.85733 -0.00065977 7 6.89653e-06C7.14267 0.000673563 7.26167 0.0483404 7.357 0.143007C7.45233 0.237674 7.5 0.356674 7.5 0.500007V8.65001L9.471 6.67901C9.56833 6.58167 9.684 6.53067 9.818 6.52601C9.952 6.52134 10.074 6.57434 10.184 6.68501C10.2907 6.79501 10.345 6.91301 10.347 7.03901C10.349 7.16501 10.295 7.28267 10.185 7.39201L7.565 10.012C7.47833 10.0987 7.38933 10.1597 7.298 10.195C7.20733 10.2303 7.108 10.248 7 10.248ZM1.616 14C1.15533 14 0.771 13.846 0.463 13.538C0.155 13.23 0.000666667 12.8453 0 12.384V10.461C0 10.319 0.0476668 10.2003 0.143 10.105C0.238333 10.0097 0.357333 9.96167 0.5 9.96101C0.642667 9.96034 0.761667 10.0083 0.857 10.105C0.952333 10.2017 1 10.3203 1 10.461V12.384C1 12.538 1.064 12.6793 1.192 12.808C1.32 12.9367 1.461 13.0007 1.615 13H12.385C12.5383 13 12.6793 12.936 12.808 12.808C12.9367 12.68 13.0007 12.5387 13 12.384V10.461C13 10.319 13.0477 10.2003 13.143 10.105C13.2383 10.0097 13.3573 9.96167 13.5 9.96101C13.6427 9.96034 13.7617 10.0083 13.857 10.105C13.9523 10.2017 14 10.3203 14 10.461V12.384C14 12.8447 13.846 13.229 13.538 13.537C13.23 13.845 12.8453 13.9993 12.384 14H1.616Z" fill="#52525B"/>
</svg>
