<svg width="28" height="28" viewBox="0 0 28 28" fill="none" xmlns="http://www.w3.org/2000/svg">
<path d="M28 10.5V25.667C27.9998 26.9554 26.9554 27.9998 25.667 28H2.33301C1.0446 27.9998 0.00017718 26.9554 0 25.667V2.33301C0.000177374 1.0446 1.0446 0.000176944 2.33301 0H17.5L28 10.5Z" fill="#F2F2F2"/>
<path d="M17.5 10.5L28 10.5L17.5 0L17.5 10.5Z" fill="#BDBDBD"/>
<rect x="1.75" y="14" width="24.5" height="11.375" rx="1.28336" fill="#EF4444"/>
<path d="M5.875 22.9687V16.4062H8.29108C8.78604 16.4062 9.2013 16.5002 9.53686 16.6882C9.87453 16.8762 10.1293 17.1347 10.3013 17.4637C10.4754 17.7905 10.5624 18.1622 10.5624 18.5788C10.5624 18.9996 10.4754 19.3735 10.3013 19.7003C10.1273 20.0272 9.87033 20.2846 9.53057 20.4726C9.19081 20.6584 8.7724 20.7513 8.27535 20.7513H6.67407V19.774H8.11805C8.40747 19.774 8.64447 19.7227 8.82903 19.6202C9.01359 19.5177 9.14991 19.3767 9.238 19.1972C9.32818 19.0178 9.37328 18.8116 9.37328 18.5788C9.37328 18.3459 9.32818 18.1409 9.238 17.9636C9.14991 17.7863 9.01254 17.6485 8.82588 17.5502C8.64132 17.4498 8.40328 17.3996 8.11176 17.3996H7.04214V22.9687H5.875Z" fill="white"/>
<path d="M13.7595 22.9687H11.5762V16.4062H13.8035C14.4432 16.4062 14.9927 16.5376 15.452 16.8004C15.9134 17.061 16.2678 17.4359 16.5153 17.9251C16.7628 18.4143 16.8865 18.9996 16.8865 19.6811C16.8865 20.3647 16.7618 20.9521 16.5122 21.4435C16.2647 21.9348 15.9071 22.3119 15.4394 22.5746C14.9738 22.8374 14.4138 22.9687 13.7595 22.9687ZM12.7434 21.9402H13.7029C14.1517 21.9402 14.526 21.8568 14.826 21.6902C15.1259 21.5215 15.3513 21.2704 15.5023 20.9372C15.6533 20.6018 15.7288 20.1831 15.7288 19.6811C15.7288 19.1791 15.6533 18.7625 15.5023 18.4314C15.3513 18.0981 15.128 17.8493 14.8323 17.6848C14.5386 17.5182 14.1737 17.4348 13.7375 17.4348H12.7434V21.9402Z" fill="white"/>
<path d="M17.9955 22.9687V16.4062H22.1229V17.4028H19.1626V19.1844H21.8398V20.181H19.1626V22.9687H17.9955Z" fill="white"/>
<path d="M5.875 22.9687V16.4062H8.29108C8.78604 16.4062 9.2013 16.5002 9.53686 16.6882C9.87453 16.8762 10.1293 17.1347 10.3013 17.4637C10.4754 17.7905 10.5624 18.1622 10.5624 18.5788C10.5624 18.9996 10.4754 19.3735 10.3013 19.7003C10.1273 20.0272 9.87033 20.2846 9.53057 20.4726C9.19081 20.6584 8.7724 20.7513 8.27535 20.7513H6.67407V19.774H8.11805C8.40747 19.774 8.64447 19.7227 8.82903 19.6202C9.01359 19.5177 9.14991 19.3767 9.238 19.1972C9.32818 19.0178 9.37328 18.8116 9.37328 18.5788C9.37328 18.3459 9.32818 18.1409 9.238 17.9636C9.14991 17.7863 9.01254 17.6485 8.82588 17.5502C8.64132 17.4498 8.40328 17.3996 8.11176 17.3996H7.04214V22.9687H5.875Z" stroke="white" stroke-width="0.583334"/>
<path d="M13.7595 22.9687H11.5762V16.4062H13.8035C14.4432 16.4062 14.9927 16.5376 15.452 16.8004C15.9134 17.061 16.2678 17.4359 16.5153 17.9251C16.7628 18.4143 16.8865 18.9996 16.8865 19.6811C16.8865 20.3647 16.7618 20.9521 16.5122 21.4435C16.2647 21.9348 15.9071 22.3119 15.4394 22.5746C14.9738 22.8374 14.4138 22.9687 13.7595 22.9687ZM12.7434 21.9402H13.7029C14.1517 21.9402 14.526 21.8568 14.826 21.6902C15.1259 21.5215 15.3513 21.2704 15.5023 20.9372C15.6533 20.6018 15.7288 20.1831 15.7288 19.6811C15.7288 19.1791 15.6533 18.7625 15.5023 18.4314C15.3513 18.0981 15.128 17.8493 14.8323 17.6848C14.5386 17.5182 14.1737 17.4348 13.7375 17.4348H12.7434V21.9402Z" stroke="white" stroke-width="0.583334"/>
<path d="M17.9955 22.9687V16.4062H22.1229V17.4028H19.1626V19.1844H21.8398V20.181H19.1626V22.9687H17.9955Z" stroke="white" stroke-width="0.583334"/>
</svg>
