<svg width="22" height="20" viewBox="0 0 22 20" fill="none" xmlns="http://www.w3.org/2000/svg">
<path fill-rule="evenodd" clip-rule="evenodd" d="M3.703 0H17.797C18.464 0 19.034 -7.82311e-08 19.49 0.0569999C19.973 0.118 20.44 0.255 20.824 0.615C21.214 0.982 21.369 1.439 21.437 1.914C21.5 2.351 21.5 2.894 21.5 3.514V4.29C21.5 4.779 21.5 5.2 21.464 5.553C21.424 5.933 21.339 6.288 21.133 6.629C20.928 6.968 20.653 7.214 20.335 7.434C20.036 7.642 19.655 7.857 19.205 8.11L16.263 9.766C15.593 10.143 15.36 10.279 15.204 10.414C14.847 10.724 14.642 11.069 14.546 11.5C14.505 11.685 14.5 11.917 14.5 12.623V15.355C14.5 16.256 14.5 17.021 14.407 17.61C14.309 18.235 14.08 18.835 13.48 19.21C12.893 19.577 12.248 19.543 11.62 19.394C11.015 19.251 10.27 18.959 9.376 18.61L9.29 18.576C8.87 18.412 8.504 18.269 8.214 18.119C7.902 17.958 7.612 17.758 7.391 17.446C7.166 17.13 7.077 16.792 7.036 16.446C7 16.131 7 15.753 7 15.331V12.623C7 11.917 6.996 11.685 6.954 11.5C6.86344 11.0741 6.63155 10.6914 6.296 10.414C6.14 10.279 5.906 10.143 5.237 9.766L2.295 8.11C1.845 7.857 1.464 7.642 1.165 7.434C0.847 7.214 0.572 6.968 0.367 6.629C0.161 6.288 0.0759999 5.932 0.0369999 5.553C-5.96046e-08 5.201 0 4.779 0 4.29V3.514C0 2.894 -3.72529e-08 2.351 0.063 1.914C0.131 1.439 0.286 0.982 0.676 0.615C1.06 0.255 1.526 0.118 2.01 0.0569999C2.466 -7.82311e-08 3.036 0 3.703 0ZM2.198 1.546C1.864 1.588 1.758 1.656 1.703 1.709C1.653 1.755 1.589 1.836 1.547 2.127C1.502 2.445 1.5 2.879 1.5 3.565V4.255C1.5 4.789 1.5 5.133 1.528 5.399C1.554 5.646 1.598 5.765 1.652 5.854C1.707 5.945 1.799 6.048 2.02 6.202C2.254 6.364 2.573 6.545 3.06 6.819L5.973 8.459L6.053 8.504C6.613 8.819 6.993 9.033 7.279 9.281C7.85742 9.76896 8.25823 10.4345 8.419 11.174C8.5 11.541 8.5 11.954 8.5 12.534V15.293C8.5 15.765 8.501 16.055 8.527 16.273C8.549 16.471 8.586 16.538 8.613 16.577C8.643 16.619 8.703 16.684 8.902 16.787C9.114 16.896 9.407 17.011 9.869 17.192C10.83 17.568 11.477 17.819 11.966 17.935C12.445 18.049 12.603 17.99 12.684 17.939C12.752 17.896 12.857 17.809 12.926 17.376C12.998 16.919 13 16.273 13 15.292V12.534C13 11.954 13 11.541 13.082 11.174C13.2425 10.4347 13.643 9.76911 14.221 9.281C14.507 9.033 14.888 8.818 15.446 8.504L15.527 8.459L18.44 6.819C18.927 6.545 19.246 6.364 19.48 6.202C19.701 6.048 19.793 5.945 19.848 5.854C19.902 5.765 19.946 5.646 19.971 5.399C19.999 5.133 20 4.789 20 4.254V3.564C20 2.879 19.998 2.444 19.953 2.127C19.911 1.836 19.846 1.755 19.798 1.709C19.742 1.657 19.636 1.588 19.302 1.546C18.952 1.501 18.477 1.5 17.75 1.5H3.75C3.023 1.5 2.549 1.501 2.198 1.546Z" fill="#807A7A"/>
</svg>
