<svg width="18" height="20" viewBox="0 0 18 20" fill="none" xmlns="http://www.w3.org/2000/svg">
<path d="M2.21621 17.1756H5.54052V11.6351C5.54052 11.3211 5.6469 11.0581 5.85966 10.8461C6.07241 10.6341 6.3354 10.5277 6.64863 10.527H11.081C11.395 10.527 11.6584 10.6334 11.8711 10.8461C12.0839 11.0589 12.1899 11.3219 12.1891 11.6351V17.1756H15.5135V7.20268L8.86484 2.21621L2.21621 7.20268V17.1756ZM0 17.1756V7.20268C0 6.85178 0.0786752 6.51935 0.236026 6.20539C0.393377 5.89142 0.610196 5.63286 0.886484 5.42971L7.53511 0.443242C7.92295 0.147747 8.36619 0 8.86484 0C9.36348 0 9.80672 0.147747 10.1946 0.443242L16.8432 5.42971C17.1202 5.63286 17.3374 5.89142 17.4948 6.20539C17.6521 6.51935 17.7304 6.85178 17.7297 7.20268V17.1756C17.7297 17.7851 17.5125 18.307 17.0781 18.7414C16.6437 19.1757 16.1222 19.3926 15.5135 19.3918H11.081C10.7671 19.3918 10.5041 19.2854 10.2921 19.0727C10.0801 18.8599 9.97368 18.5969 9.97294 18.2837V12.7432H7.75673V18.2837C7.75673 18.5977 7.65035 18.861 7.4376 19.0738C7.22484 19.2866 6.96185 19.3926 6.64863 19.3918H2.21621C1.60675 19.3918 1.0852 19.175 0.651565 18.7414C0.217927 18.3077 0.000738736 17.7858 0 17.1756Z" fill="#0D0D0D"/>
</svg>
