<svg width="24" height="25" viewBox="0 0 24 25" fill="none" xmlns="http://www.w3.org/2000/svg">
<path d="M6.33331 20.0583C6.25657 20.0577 6.1824 20.0306 6.12331 19.9816C4.62247 18.7677 3.53496 17.1182 3.01055 15.2605C2.48615 13.4028 2.55066 11.4281 3.1952 9.60857C3.83974 7.78902 5.03259 6.21408 6.60946 5.10067C8.18634 3.98727 10.0696 3.39017 12 3.39164C13.4274 3.38741 14.8364 3.71371 16.1166 4.34498C16.1957 4.38435 16.256 4.45351 16.2841 4.53726C16.3122 4.62102 16.3059 4.71251 16.2666 4.79164C16.2474 4.83109 16.2206 4.86637 16.1878 4.89544C16.1549 4.92451 16.1166 4.94681 16.0751 4.96105C16.0336 4.9753 15.9897 4.98121 15.946 4.97845C15.9022 4.97569 15.8594 4.96432 15.82 4.94498C13.8782 3.99144 11.65 3.79857 9.57327 4.40426C7.49652 5.00995 5.72137 6.37041 4.59664 8.21831C3.50569 10.0112 3.10239 12.1391 3.46162 14.2068C3.82086 16.2746 4.91823 18.1418 6.54998 19.4616C6.58397 19.4894 6.61216 19.5236 6.63291 19.5622C6.65366 19.6009 6.66658 19.6433 6.67091 19.6869C6.67525 19.7306 6.67092 19.7747 6.65818 19.8167C6.64543 19.8587 6.62452 19.8978 6.59664 19.9316C6.56525 19.9714 6.52522 20.0034 6.4796 20.0254C6.43397 20.0473 6.38394 20.0586 6.33331 20.0583ZM12 22.0583C10.5107 22.0623 9.04238 21.7067 7.71998 21.0216C7.64129 20.981 7.58199 20.9107 7.55511 20.8263C7.52823 20.7419 7.53598 20.6503 7.57664 20.5716C7.61731 20.493 7.68757 20.4337 7.77196 20.4068C7.85635 20.3799 7.94796 20.3876 8.02664 20.4283C9.70642 21.2954 11.6236 21.5894 13.486 21.2657C15.3485 20.9419 17.054 20.0182 18.3426 18.6351C19.6313 17.2521 20.4324 15.4856 20.6239 13.605C20.8154 11.7244 20.3867 9.83271 19.4033 8.21831C18.8854 7.37104 18.2271 6.61807 17.4566 5.99164C17.3885 5.93616 17.345 5.856 17.3356 5.7686C17.3262 5.6812 17.3518 5.59364 17.4066 5.52498C17.4341 5.49073 17.4682 5.46227 17.5067 5.44121C17.5452 5.42015 17.5876 5.40692 17.6312 5.40227C17.6749 5.39762 17.7191 5.40165 17.7612 5.41413C17.8033 5.42661 17.8425 5.44729 17.8766 5.47498C18.7055 6.14914 19.4134 6.95963 19.97 7.87164C20.8314 9.28662 21.3007 10.9054 21.3297 12.5617C21.3586 14.218 20.9463 15.8521 20.1349 17.2964C19.3235 18.7406 18.1424 19.9429 16.7128 20.7798C15.2831 21.6166 13.6565 22.0579 12 22.0583Z" fill="#009418"/>
<path d="M11.6666 21.725C11.584 21.7248 11.5044 21.6939 11.4433 21.6384C10.1914 20.5157 9.23733 19.1002 8.66663 17.5184C8.03361 15.9981 7.69429 14.3716 7.66663 12.725C7.67029 11.0748 8.01056 9.44263 8.66663 7.92838C9.2924 6.37617 10.2386 4.97341 11.4433 3.81171C11.5096 3.7585 11.5937 3.7326 11.6784 3.73933C11.7631 3.74605 11.8421 3.78489 11.8991 3.84789C11.9562 3.91089 11.987 3.99331 11.9853 4.07828C11.9836 4.16326 11.9495 4.24437 11.89 4.30505C10.7516 5.4008 9.8566 6.72393 9.26329 8.18838C8.64913 9.62198 8.33273 11.1654 8.33329 12.725C8.35469 14.2838 8.67139 15.8243 9.26663 17.265C9.80545 18.7561 10.707 20.0895 11.89 21.145C11.9397 21.1902 11.9746 21.2494 11.9901 21.3148C12.0056 21.3802 12.001 21.4488 11.9768 21.5115C11.9527 21.5742 11.9101 21.6282 11.8548 21.6663C11.7994 21.7044 11.7338 21.7249 11.6666 21.725Z" fill="#009418"/>
<path d="M12.3333 21.7251C12.2661 21.725 12.2005 21.7045 12.1452 21.6664C12.0898 21.6283 12.0473 21.5743 12.0231 21.5116C11.999 21.4489 11.9943 21.3803 12.0098 21.3149C12.0253 21.2495 12.0602 21.1904 12.11 21.1451C13.2929 20.0896 14.1945 18.7562 14.7333 17.2651C15.3285 15.8244 15.6452 14.2839 15.6666 12.7251C15.6672 11.1655 15.3508 9.62208 14.7366 8.18848C14.1433 6.72404 13.2484 5.4009 12.11 4.30515C12.0745 4.2767 12.0453 4.24131 12.0241 4.20115C12.0028 4.16099 11.99 4.11691 11.9864 4.07162C11.9828 4.02633 11.9885 3.98078 12.0032 3.93777C12.0178 3.89476 12.0411 3.8552 12.0716 3.82152C12.1021 3.78784 12.1391 3.76075 12.1805 3.74191C12.2218 3.72308 12.2666 3.71289 12.312 3.71198C12.3574 3.71107 12.4026 3.71946 12.4446 3.73663C12.4867 3.7538 12.5248 3.77938 12.5566 3.81182C13.7674 4.97191 14.7193 6.37478 15.35 7.92848C16.0003 9.44393 16.3349 11.076 16.3333 12.7251C16.3056 14.3717 15.9663 15.9982 15.3333 17.5185C14.7588 19.1016 13.8001 20.5174 12.5433 21.6385C12.4856 21.6911 12.4113 21.7217 12.3333 21.7251Z" fill="#009418"/>
<path d="M21 13.0579H2.99996C2.91155 13.0579 2.82677 13.0228 2.76426 12.9603C2.70174 12.8978 2.66663 12.813 2.66663 12.7246C2.66663 12.6362 2.70174 12.5514 2.76426 12.4889C2.82677 12.4264 2.91155 12.3913 2.99996 12.3913H21C21.0884 12.3913 21.1732 12.4264 21.2357 12.4889C21.2982 12.5514 21.3333 12.6362 21.3333 12.7246C21.3333 12.813 21.2982 12.8978 21.2357 12.9603C21.1732 13.0228 21.0884 13.0579 21 13.0579ZM19.6666 8.39128H4.33329C4.24489 8.39128 4.1601 8.35616 4.09759 8.29365C4.03508 8.23113 3.99996 8.14635 3.99996 8.05794C3.99996 7.96954 4.03508 7.88475 4.09759 7.82224C4.1601 7.75973 4.24489 7.72461 4.33329 7.72461H19.6666C19.755 7.72461 19.8398 7.75973 19.9023 7.82224C19.9648 7.88475 20 7.96954 20 8.05794C20 8.14635 19.9648 8.23113 19.9023 8.29365C19.8398 8.35616 19.755 8.39128 19.6666 8.39128ZM19.6666 17.7246H4.33329C4.24489 17.7246 4.1601 17.6895 4.09759 17.627C4.03508 17.5645 3.99996 17.4797 3.99996 17.3913C3.99996 17.3029 4.03508 17.2181 4.09759 17.1556C4.1601 17.0931 4.24489 17.0579 4.33329 17.0579H19.6666C19.755 17.0579 19.8398 17.0931 19.9023 17.1556C19.9648 17.2181 20 17.3029 20 17.3913C20 17.4797 19.9648 17.5645 19.9023 17.627C19.8398 17.6895 19.755 17.7246 19.6666 17.7246Z" fill="#009418"/>
<path d="M12 21.7246C11.9116 21.7246 11.8268 21.6895 11.7643 21.627C11.7017 21.5645 11.6666 21.4797 11.6666 21.3913V4.05794C11.6666 3.96954 11.7017 3.88475 11.7643 3.82224C11.8268 3.75973 11.9116 3.72461 12 3.72461C12.0884 3.72461 12.1731 3.75973 12.2357 3.82224C12.2982 3.88475 12.3333 3.96954 12.3333 4.05794V21.3913C12.3333 21.4797 12.2982 21.5645 12.2357 21.627C12.1731 21.6895 12.0884 21.7246 12 21.7246Z" fill="#009418"/>
</svg>
