<svg width="16" height="16" viewBox="0 0 16 16" fill="none" xmlns="http://www.w3.org/2000/svg">
<path d="M11.3335 7.33301H4.66683C3.93045 7.33301 3.3335 7.92996 3.3335 8.66634V12.6663C3.3335 13.4027 3.93045 13.9997 4.66683 13.9997H11.3335C12.0699 13.9997 12.6668 13.4027 12.6668 12.6663V8.66634C12.6668 7.92996 12.0699 7.33301 11.3335 7.33301Z" stroke="#9CA3AF" stroke-linecap="round" stroke-linejoin="round"/>
<path d="M8.00016 11.3333C8.36835 11.3333 8.66683 11.0349 8.66683 10.6667C8.66683 10.2985 8.36835 10 8.00016 10C7.63197 10 7.3335 10.2985 7.3335 10.6667C7.3335 11.0349 7.63197 11.3333 8.00016 11.3333Z" stroke="#9CA3AF" stroke-linecap="round" stroke-linejoin="round"/>
<path d="M5.3335 7.33333V4.66667C5.3335 3.95942 5.61445 3.28115 6.11454 2.78105C6.61464 2.28095 7.29292 2 8.00016 2C8.70741 2 9.38568 2.28095 9.88578 2.78105C10.3859 3.28115 10.6668 3.95942 10.6668 4.66667V7.33333" stroke="#9CA3AF" stroke-linecap="round" stroke-linejoin="round"/>
</svg>
