<svg width="19" height="19" viewBox="0 0 19 19" fill="none" xmlns="http://www.w3.org/2000/svg">
<g clip-path="url(#clip0_193_4190)">
<path d="M6.84934 8.80588C6.84934 8.28687 7.05551 7.78912 7.42251 7.42213C7.7895 7.05513 8.28725 6.84896 8.80626 6.84896C9.32527 6.84896 9.82302 7.05513 10.19 7.42213C10.557 7.78912 10.7632 8.28687 10.7632 8.80588C10.7632 9.32489 10.557 9.82264 10.19 10.1896C9.82302 10.5566 9.32527 10.7628 8.80626 10.7628C8.28725 10.7628 7.7895 10.5566 7.42251 10.1896C7.05551 9.82264 6.84934 9.32489 6.84934 8.80588ZM8.80626 7.82742C8.54676 7.82742 8.29788 7.93051 8.11439 8.11401C7.93089 8.2975 7.8278 8.54638 7.8278 8.80588C7.8278 9.06539 7.93089 9.31426 8.11439 9.49776C8.29788 9.68126 8.54676 9.78434 8.80626 9.78434C9.06577 9.78434 9.31464 9.68126 9.49814 9.49776C9.68164 9.31426 9.78472 9.06539 9.78472 8.80588C9.78472 8.54638 9.68164 8.2975 9.49814 8.11401C9.31464 7.93051 9.06577 7.82742 8.80626 7.82742ZM3.42472 3.91357C3.03547 3.91357 2.66215 4.06821 2.38691 4.34345C2.11166 4.6187 1.95703 4.99201 1.95703 5.38127V12.2305C1.95703 12.6198 2.11166 12.9931 2.38691 13.2683C2.66215 13.5436 3.03547 13.6982 3.42472 13.6982H14.1878C14.5771 13.6982 14.9504 13.5436 15.2256 13.2683C15.5009 12.9931 15.6555 12.6198 15.6555 12.2305V5.38127C15.6555 4.99201 15.5009 4.6187 15.2256 4.34345C14.9504 4.06821 14.5771 3.91357 14.1878 3.91357H3.42472ZM2.93549 5.38127C2.93549 5.25151 2.98704 5.12708 3.07879 5.03533C3.17053 4.94358 3.29497 4.89204 3.42472 4.89204H4.89242V5.8705C4.89242 6.13 4.78933 6.37888 4.60583 6.56237C4.42233 6.74587 4.17346 6.84896 3.91395 6.84896H2.93549V5.38127ZM2.93549 7.82742H3.91395C4.43296 7.82742 4.93071 7.62125 5.29771 7.25425C5.6647 6.88726 5.87088 6.38951 5.87088 5.8705V4.89204H11.7416V5.8705C11.7416 6.38951 11.9478 6.88726 12.3148 7.25425C12.6818 7.62125 13.1796 7.82742 13.6986 7.82742H14.677V9.78434H13.6986C13.1796 9.78434 12.6818 9.99052 12.3148 10.3575C11.9478 10.7245 11.7416 11.2223 11.7416 11.7413V12.7197H5.87088V11.7413C5.87088 11.2223 5.6647 10.7245 5.29771 10.3575C4.93071 9.99052 4.43296 9.78434 3.91395 9.78434H2.93549V7.82742ZM12.7201 4.89204H14.1878C14.3176 4.89204 14.442 4.94358 14.5337 5.03533C14.6255 5.12708 14.677 5.25151 14.677 5.38127V6.84896H13.6986C13.4391 6.84896 13.1902 6.74587 13.0067 6.56237C12.8232 6.37888 12.7201 6.13 12.7201 5.8705V4.89204ZM14.677 10.7628V12.2305C14.677 12.3602 14.6255 12.4847 14.5337 12.5764C14.442 12.6682 14.3176 12.7197 14.1878 12.7197H12.7201V11.7413C12.7201 11.4818 12.8232 11.2329 13.0067 11.0494C13.1902 10.8659 13.4391 10.7628 13.6986 10.7628H14.677ZM4.89242 12.7197H3.42472C3.29497 12.7197 3.17053 12.6682 3.07879 12.5764C2.98704 12.4847 2.93549 12.3602 2.93549 12.2305V10.7628H3.91395C4.17346 10.7628 4.42233 10.8659 4.60583 11.0494C4.78933 11.2329 4.89242 11.4818 4.89242 11.7413V12.7197ZM16.634 12.2305C16.634 12.8793 16.3762 13.5014 15.9175 13.9602C15.4587 14.4189 14.8366 14.6767 14.1878 14.6767H3.99712C4.09834 14.9629 4.28585 15.2108 4.53382 15.386C4.78179 15.5613 5.078 15.6553 5.38165 15.6551H14.1878C15.0961 15.6551 15.9671 15.2943 16.6094 14.6521C17.2516 14.0098 17.6124 13.1388 17.6124 12.2305V7.33819C17.6126 7.03455 17.5186 6.73833 17.3433 6.49036C17.1681 6.24239 16.9202 6.05488 16.634 5.95367V12.2305Z" fill="#7D151E"/>
</g>
<defs>
<clipPath id="clip0_193_4190">
<rect width="18.3462" height="18.3462" fill="white"/>
</clipPath>
</defs>
</svg>
