<svg width="22" height="22" viewBox="0 0 22 22" fill="none" xmlns="http://www.w3.org/2000/svg">
<path d="M19.6688 14.1283C19.6688 16.1938 19.6688 17.2266 19.332 18.0399C19.1092 18.5777 18.7827 19.0664 18.3711 19.4781C17.9594 19.8897 17.4708 20.2162 16.9329 20.439C16.1185 20.7769 15.0857 20.7769 13.0202 20.7769H9.69589C5.51612 20.7769 3.42624 20.7769 2.12754 19.4782C0.831055 18.1806 0.831055 16.0908 0.831055 11.9121V5.26347C0.831055 4.08792 1.29804 2.96052 2.12928 2.12928C2.96052 1.29804 4.08792 0.831055 5.26347 0.831055" stroke="#0D0D0D" stroke-width="1.66216" stroke-linecap="round" stroke-linejoin="round"/>
<path d="M8.58799 6.92543L9.0689 11.3235C9.08934 11.5038 9.15653 11.6757 9.26382 11.822C9.37111 11.9684 9.51477 12.0842 9.68058 12.1579C10.4407 12.4848 11.8647 13.02 13.0204 13.02C14.1762 13.02 15.6001 12.4848 16.3602 12.1579C16.5262 12.0843 16.6701 11.9686 16.7776 11.8222C16.8851 11.6759 16.9525 11.5039 16.973 11.3235L17.4528 6.92543M20.2231 5.81733V9.99488M13.0204 1.93896L5.26367 5.26328L13.0204 8.58759L20.7771 5.26328L13.0204 1.93896Z" stroke="#0D0D0D" stroke-width="1.66216" stroke-linecap="round" stroke-linejoin="round"/>
</svg>
