<svg width="17" height="20" viewBox="0 0 17 20" fill="none" xmlns="http://www.w3.org/2000/svg">
<path d="M16.5 15.5833V16.5H0V15.5833L1.83333 13.75V8.25C1.83333 5.40833 3.69417 2.90583 6.41667 2.09917V1.83333C6.41667 1.3471 6.60982 0.880787 6.95364 0.536971C7.29745 0.193154 7.76377 0 8.25 0C8.73623 0 9.20255 0.193154 9.54636 0.536971C9.89018 0.880787 10.0833 1.3471 10.0833 1.83333V2.09917C12.8058 2.90583 14.6667 5.40833 14.6667 8.25V13.75L16.5 15.5833ZM10.0833 17.4167C10.0833 17.9029 9.89018 18.3692 9.54636 18.713C9.20255 19.0568 8.73623 19.25 8.25 19.25C7.76377 19.25 7.29745 19.0568 6.95364 18.713C6.60982 18.3692 6.41667 17.9029 6.41667 17.4167" fill="#7D151E"/>
</svg>
