<svg width="24" height="25" viewBox="0 0 24 25" fill="none" xmlns="http://www.w3.org/2000/svg">
<path d="M5.00011 19.5C4.71678 19.5 4.47945 19.404 4.28811 19.212C4.09678 19.02 4.00078 18.7827 4.00011 18.5C3.99945 18.2173 4.09545 17.98 4.28811 17.788C4.48078 17.596 4.71811 17.5 5.00011 17.5H6.00011V10.5C6.00011 9.11667 6.41678 7.88767 7.25011 6.813C8.08345 5.73834 9.16678 5.034 10.5001 4.7V4C10.5001 3.58334 10.6461 3.22934 10.9381 2.938C11.2301 2.64667 11.5841 2.50067 12.0001 2.5C12.4161 2.49934 12.7704 2.64534 13.0631 2.938C13.3558 3.23067 13.5014 3.58467 13.5001 4V4.7C14.8334 5.03334 15.9168 5.73767 16.7501 6.813C17.5834 7.88834 18.0001 9.11734 18.0001 10.5V17.5H19.0001C19.2834 17.5 19.5211 17.596 19.7131 17.788C19.9051 17.98 20.0008 18.2173 20.0001 18.5C19.9994 18.7827 19.9034 19.0203 19.7121 19.213C19.5208 19.4057 19.2834 19.5013 19.0001 19.5H5.00011ZM12.0001 22.5C11.4501 22.5 10.9794 22.3043 10.5881 21.913C10.1968 21.5217 10.0008 21.0507 10.0001 20.5H14.0001C14.0001 21.05 13.8044 21.521 13.4131 21.913C13.0218 22.305 12.5508 22.5007 12.0001 22.5ZM3.00011 10.5C2.71678 10.5 2.47945 10.3917 2.28811 10.175C2.09678 9.95834 2.01745 9.70834 2.05011 9.425C2.18345 8.175 2.53345 7.01234 3.10011 5.937C3.66678 4.86167 4.39178 3.92434 5.27511 3.125C5.49178 2.94167 5.73778 2.85834 6.01311 2.875C6.28845 2.89167 6.50911 3.01667 6.67511 3.25C6.84111 3.48334 6.90778 3.73334 6.87511 4C6.84245 4.26667 6.71745 4.5 6.50011 4.7C5.85011 5.31667 5.31678 6.03334 4.90011 6.85C4.48345 7.66667 4.20845 8.55 4.07511 9.5C4.04178 9.78334 3.92511 10.021 3.72511 10.213C3.52511 10.405 3.28345 10.5007 3.00011 10.5ZM21.0001 10.5C20.7168 10.5 20.4751 10.404 20.2751 10.212C20.0751 10.02 19.9584 9.78267 19.9251 9.5C19.7918 8.55 19.5168 7.66667 19.1001 6.85C18.6834 6.03334 18.1501 5.31667 17.5001 4.7C17.2834 4.5 17.1584 4.26667 17.1251 4C17.0918 3.73334 17.1584 3.48334 17.3251 3.25C17.4918 3.01667 17.7128 2.89167 17.9881 2.875C18.2634 2.85834 18.5091 2.94167 18.7251 3.125C19.6084 3.925 20.3334 4.86234 20.9001 5.937C21.4668 7.01167 21.8168 8.17434 21.9501 9.425C21.9834 9.70834 21.9044 9.95834 21.7131 10.175C21.5218 10.3917 21.2841 10.5 21.0001 10.5Z" fill="#807A7A"/>
</svg>
