<svg width="18" height="21" viewBox="0 0 18 21" fill="none" xmlns="http://www.w3.org/2000/svg">
<path d="M2.02125 20.1251C1.68548 20.1245 1.35566 20.0365 1.06422 19.8697C0.407969 19.4978 0 18.776 0 17.9923V2.13291C0 1.34705 0.407969 0.627362 1.06422 0.255487C1.3626 0.084007 1.70156 -0.00417705 2.04567 0.000152052C2.38979 0.00448115 2.72642 0.101165 3.02039 0.280097L16.5747 8.39354C16.8572 8.57066 17.09 8.81663 17.2515 9.10838C17.4129 9.40012 17.4976 9.72808 17.4976 10.0615C17.4976 10.3949 17.4129 10.7229 17.2515 11.0146C17.09 11.3064 16.8572 11.5523 16.5747 11.7295L3.0182 19.8451C2.71736 20.027 2.37279 20.1237 2.02125 20.1251Z" fill="white"/>
</svg>
