<svg width="9" height="11" viewBox="0 0 9 11" fill="none" xmlns="http://www.w3.org/2000/svg">
<path d="M1.01367 0.75C1.05119 0.75052 1.08804 0.760817 1.12012 0.780273L1.125 0.783203L7.88867 4.83105V4.83203C7.92226 4.85309 7.95051 4.88231 7.96973 4.91699C7.98887 4.95159 7.99894 4.99074 7.99902 5.03027C7.99902 5.06997 7.98894 5.1098 7.96973 5.14453C7.96019 5.16175 7.94798 5.17721 7.93457 5.19141L7.88867 5.22949L1.12402 9.2793L1.12109 9.28027C1.0872 9.30077 1.04839 9.31118 1.00879 9.31152C0.972221 9.31091 0.93608 9.30237 0.904297 9.28418L0.902344 9.28223L0.84375 9.2373C0.789761 9.18226 0.75 9.09805 0.75 8.99609V1.06641C0.750017 0.929658 0.821119 0.826301 0.902344 0.780273L0.90625 0.77832C0.93891 0.759594 0.976024 0.749526 1.01367 0.75Z" stroke="#6B7280" stroke-width="1.5"/>
</svg>
