<svg width="10" height="10" viewBox="0 0 10 10" fill="none" xmlns="http://www.w3.org/2000/svg">
<path d="M2.59785 8.59379C2.47793 8.59356 2.36014 8.56213 2.25605 8.50257C2.02168 8.36976 1.87598 8.11195 1.87598 7.83207V2.168C1.87598 1.88734 2.02168 1.63031 2.25605 1.4975C2.36262 1.43625 2.48368 1.40476 2.60657 1.4063C2.72947 1.40785 2.8497 1.44238 2.95469 1.50628L7.79551 4.40394C7.89639 4.4672 7.97956 4.55505 8.03721 4.65924C8.09486 4.76344 8.12511 4.88056 8.12511 4.99964C8.12511 5.11872 8.09486 5.23585 8.03721 5.34005C7.97956 5.44424 7.89639 5.53209 7.79551 5.59535L2.95391 8.49379C2.84646 8.55874 2.7234 8.5933 2.59785 8.59379Z" fill="#2C3658"/>
</svg>
