<svg width="11" height="14" viewBox="0 0 11 14" fill="none" xmlns="http://www.w3.org/2000/svg">
<path d="M0.75 8.55391C0.75 10.254 0.750001 11.1026 1.04838 11.5949C1.30914 12.0238 1.71 12.301 2.15108 12.3568C2.65832 12.4202 3.27584 11.9975 4.50957 11.1506L7.4207 9.15314C8.66092 8.30153 9.28232 7.87572 9.48989 7.3183C9.58011 7.07876 9.62675 6.81912 9.62675 6.55649C9.62675 6.29387 9.58011 6.03422 9.48989 5.79469C9.28232 5.23727 8.66092 4.81146 7.4207 3.9614L4.50957 1.96243C3.27584 1.11546 2.65832 0.69275 2.15238 0.756234C1.7113 0.811976 1.30914 1.08914 1.04968 1.51804C0.75 2.01043 0.75 2.85894 0.75 4.55752V8.55391Z" stroke="#7D151E" stroke-width="1.5"/>
</svg>
