<svg width="18" height="20" viewBox="0 0 18 20" fill="none" xmlns="http://www.w3.org/2000/svg">
<path d="M16.6188 19.25C16.6188 15.648 12.6028 12.72 9.00081 12.72C5.39881 12.72 1.38281 15.648 1.38281 19.25M9.00081 9.456C10.1553 9.456 11.2625 8.99738 12.0788 8.18104C12.8952 7.36469 13.3538 6.25749 13.3538 5.103C13.3538 3.94851 12.8952 2.84131 12.0788 2.02496C11.2625 1.20862 10.1553 0.75 9.00081 0.75C7.84633 0.75 6.73912 1.20862 5.92278 2.02496C5.10643 2.84131 4.64781 3.94851 4.64781 5.103C4.64781 6.25749 5.10643 7.36469 5.92278 8.18104C6.73912 8.99738 7.84633 9.456 9.00081 9.456Z" stroke="black" stroke-width="1.5" stroke-linecap="round" stroke-linejoin="round"/>
</svg>
