<svg width="10" height="10" viewBox="0 0 10 10" fill="none" xmlns="http://www.w3.org/2000/svg">
<path d="M1.66683 4.99967H2.91683C3.13784 4.99967 3.3498 5.08747 3.50608 5.24375C3.66237 5.40003 3.75016 5.61199 3.75016 5.83301V7.91634C3.75016 8.13735 3.66237 8.34932 3.50608 8.5056C3.3498 8.66188 3.13784 8.74967 2.91683 8.74967H1.66683C1.44582 8.74967 1.23385 8.66188 1.07757 8.5056C0.921293 8.34932 0.833496 8.13735 0.833496 7.91634V4.99967C0.833496 2.69842 2.69891 0.833008 5.00016 0.833008C7.30141 0.833008 9.16683 2.69842 9.16683 4.99967V7.91634C9.16683 8.13735 9.07903 8.34932 8.92275 8.5056C8.76647 8.66188 8.55451 8.74967 8.3335 8.74967H7.0835C6.86248 8.74967 6.65052 8.66188 6.49424 8.5056C6.33796 8.34932 6.25016 8.13735 6.25016 7.91634V5.83301C6.25016 5.61199 6.33796 5.40003 6.49424 5.24375C6.65052 5.08747 6.86248 4.99967 7.0835 4.99967H8.3335C8.3335 4.11562 7.98231 3.26777 7.35719 2.64265C6.73206 2.01753 5.88422 1.66634 5.00016 1.66634C4.11611 1.66634 3.26826 2.01753 2.64314 2.64265C2.01802 3.26777 1.66683 4.11562 1.66683 4.99967Z" fill="#52525B"/>
</svg>
