<svg width="28" height="23" viewBox="0 0 28 23" fill="none" xmlns="http://www.w3.org/2000/svg">
<path fill-rule="evenodd" clip-rule="evenodd" d="M1.78081 12.6458H22.0168L15.1432 19.443C14.5364 20.0621 14.5492 21.0517 15.1624 21.6628C15.7804 22.2693 16.7811 22.2819 17.4072 21.6818L27.0139 12.1818C27.3149 11.8858 27.4831 11.4836 27.4831 11.0688V11.0624C27.4831 10.8582 27.4398 10.6476 27.3582 10.456C27.2765 10.2644 27.158 10.0918 27.0139 9.94302L17.4072 0.443015C16.7747 -0.157068 15.7804 -0.144401 15.1624 0.462015C14.5428 1.07318 14.5364 2.06277 15.1432 2.68185L22.0168 9.4791H1.78081C0.898592 9.4791 0.179688 10.19 0.179688 11.0624C0.179688 11.9348 0.898592 12.6458 1.78081 12.6458Z" fill="white"/>
</svg>
