<svg width="20" height="21" viewBox="0 0 20 21" fill="none" xmlns="http://www.w3.org/2000/svg">
<path d="M19.3765 16.8261L15.4887 12.736C14.7002 11.9064 13.3778 11.9062 12.589 12.7355C11.8542 13.5079 11.8542 14.7208 12.589 15.4933L16.6186 19.7296C17.0569 20.1904 17.7784 20.1904 18.2167 19.7296L19.3765 18.5103C19.8148 18.0454 19.8148 17.2828 19.3765 16.8261Z" fill="#B7B7B7"/>
<path d="M10.6362 12.0636C11.0494 12.498 11.7421 12.498 12.1553 12.0636C12.5403 11.6589 12.5403 11.0234 12.1553 10.6186L11.9449 10.3974C11.5054 9.93534 11.4587 9.23615 11.7102 8.65016C12.6673 6.42001 12.2771 3.70422 10.5346 1.87237C8.28877 -0.488705 4.63874 -0.488705 2.38899 1.87237C0.139233 4.23344 0.143111 8.07069 2.38899 10.4358C4.12487 12.2608 6.6952 12.6747 8.81198 11.683C9.37585 11.4189 10.0682 11.4666 10.4974 11.9177L10.6362 12.0636ZM3.5061 9.24511C1.87697 7.53242 1.87697 4.7554 3.5061 3.04679C5.13523 1.33409 7.77675 1.33409 9.40201 3.04679C11.0311 4.75948 11.0311 7.53649 9.40201 9.24511C7.77675 10.9578 5.13523 10.9578 3.5061 9.24511Z" fill="#B7B7B7"/>
</svg>
