<svg width="22" height="23" viewBox="0 0 22 23" fill="none" xmlns="http://www.w3.org/2000/svg">
<path d="M19.994 11.8139C19.8164 11.6117 19.7184 11.3517 19.7184 11.0826C19.7184 10.8134 19.8164 10.5534 19.994 10.3512L21.4124 8.75553C21.5687 8.58119 21.6658 8.36183 21.6896 8.12891C21.7135 7.89599 21.663 7.66149 21.5454 7.45905L19.3292 3.62501C19.2127 3.4228 19.0354 3.26252 18.8225 3.16701C18.6096 3.07151 18.372 3.04564 18.1435 3.09312L16.0603 3.5142C15.7952 3.56897 15.5192 3.52482 15.2845 3.39009C15.0497 3.25536 14.8724 3.03936 14.7859 2.78285L14.11 0.755018C14.0357 0.534925 13.894 0.343762 13.7051 0.208547C13.5162 0.0733331 13.2896 0.000907312 13.0573 0.00150698H8.62488C8.38324 -0.0111055 8.14411 0.0557225 7.94402 0.191784C7.74393 0.327846 7.59387 0.525662 7.51677 0.755018L6.89623 2.78285C6.8098 3.03936 6.63247 3.25536 6.39771 3.39009C6.16295 3.52482 5.88699 3.56897 5.62191 3.5142L3.48327 3.09312C3.26669 3.06251 3.0459 3.09669 2.84871 3.19134C2.65152 3.28599 2.48676 3.43688 2.37517 3.62501L0.158959 7.45905C0.0383526 7.65923 -0.0158757 7.89241 0.00402635 8.12527C0.0239284 8.35812 0.116942 8.57872 0.269769 8.75553L1.67706 10.3512C1.85471 10.5534 1.95269 10.8134 1.95269 11.0826C1.95269 11.3517 1.85471 11.6117 1.67706 11.8139L0.269769 13.4096C0.116942 13.5864 0.0239284 13.807 0.00402635 14.0398C-0.0158757 14.2727 0.0383526 14.5059 0.158959 14.7061L2.37517 18.5401C2.49163 18.7423 2.66895 18.9026 2.88185 18.9981C3.09475 19.0936 3.33237 19.1195 3.56084 19.072L5.64408 18.6509C5.90915 18.5961 6.18511 18.6403 6.41987 18.775C6.65464 18.9097 6.83197 19.1257 6.9184 19.3823L7.59434 21.4101C7.67144 21.6394 7.8215 21.8373 8.02159 21.9733C8.22168 22.1094 8.4608 22.1762 8.70244 22.1636H13.1349C13.3672 22.1642 13.5938 22.0918 13.7827 21.9566C13.9716 21.8213 14.1132 21.6302 14.1876 21.4101L14.8635 19.3823C14.9499 19.1257 15.1273 18.9097 15.362 18.775C15.5968 18.6403 15.8727 18.5961 16.1378 18.6509L18.2211 19.072C18.4495 19.1195 18.6871 19.0936 18.9001 18.9981C19.113 18.9026 19.2903 18.7423 19.4067 18.5401L21.6229 14.7061C21.7406 14.5036 21.7911 14.2691 21.7672 14.0362C21.7433 13.8033 21.6463 13.5839 21.49 13.4096L19.994 11.8139ZM18.343 13.2988L19.2294 14.2961L17.8111 16.756L16.5035 16.4901C15.7054 16.327 14.8752 16.4625 14.1705 16.8711C13.4658 17.2796 12.9356 17.9327 12.6805 18.7063L12.2595 19.9474H9.42271L9.02379 18.6841C8.76877 17.9105 8.23857 17.2574 7.53384 16.8489C6.82911 16.4404 5.99891 16.3048 5.20083 16.4679L3.89327 16.7339L2.45274 14.285L3.33922 13.2877C3.88436 12.6782 4.18574 11.8892 4.18574 11.0715C4.18574 10.2538 3.88436 9.46474 3.33922 8.85526L2.45274 7.85797L3.87111 5.42014L5.17867 5.68608C5.97675 5.84922 6.80695 5.71365 7.51168 5.30512C8.21641 4.89658 8.74661 4.24351 9.00163 3.46987L9.42271 2.21772H12.2595L12.6805 3.48095C12.9356 4.25459 13.4658 4.90766 14.1705 5.3162C14.8752 5.72473 15.7054 5.8603 16.5035 5.69716L17.8111 5.43122L19.2294 7.89121L18.343 8.8885C17.8039 9.49659 17.5063 10.281 17.5063 11.0936C17.5063 11.9062 17.8039 12.6907 18.343 13.2988ZM10.8411 6.65013C9.96444 6.65013 9.10747 6.91009 8.37857 7.39713C7.64966 7.88417 7.08154 8.57642 6.74607 9.38634C6.41059 10.1963 6.32281 11.0875 6.49384 11.9473C6.66486 12.8071 7.08701 13.5969 7.70689 14.2167C8.32678 14.8366 9.11656 15.2588 9.97636 15.4298C10.8362 15.6008 11.7274 15.5131 12.5373 15.1776C13.3472 14.8421 14.0395 14.274 14.5265 13.5451C15.0135 12.8162 15.2735 11.9592 15.2735 11.0826C15.2735 9.907 14.8065 8.7796 13.9753 7.94836C13.144 7.11712 12.0166 6.65013 10.8411 6.65013ZM10.8411 13.2988C10.4028 13.2988 9.97428 13.1688 9.60983 12.9253C9.24537 12.6817 8.96132 12.3356 8.79358 11.9307C8.62584 11.5257 8.58195 11.0801 8.66746 10.6502C8.75297 10.2203 8.96405 9.8254 9.27399 9.51546C9.58393 9.20551 9.97882 8.99444 10.4087 8.90893C10.8386 8.82341 11.2842 8.8673 11.6892 9.03504C12.0942 9.20278 12.4403 9.48684 12.6838 9.85129C12.9273 10.2157 13.0573 10.6442 13.0573 11.0826C13.0573 11.6703 12.8238 12.234 12.4082 12.6496C11.9926 13.0653 11.4289 13.2988 10.8411 13.2988Z" fill="#0D0D0D"/>
</svg>
