<svg width="28" height="29" viewBox="0 0 28 29" fill="none" xmlns="http://www.w3.org/2000/svg">
<path d="M11.5003 0L21.9915 3.27759C22.2841 3.36894 22.5398 3.55142 22.7214 3.7984C22.9029 4.04537 23.0008 4.34392 23.0006 4.65044V7.1877H25.8757C26.257 7.1877 26.6226 7.33916 26.8922 7.60875C27.1618 7.87834 27.3133 8.24398 27.3133 8.62524V11.5003H8.62524V8.62524C8.62524 8.24398 8.7767 7.87834 9.04629 7.60875C9.31588 7.33916 9.68152 7.1877 10.0628 7.1877H20.1256V5.70704L11.5003 3.01021L2.87508 5.70704V16.3506C2.87488 17.2307 3.0767 18.0991 3.465 18.8889C3.8533 19.6787 4.41772 20.3689 5.11477 20.9062L5.38646 21.1017L11.5003 25.2705L16.9371 21.5631H10.0628C9.68152 21.5631 9.31588 21.4117 9.04629 21.1421C8.7767 20.8725 8.62524 20.5068 8.62524 20.1256V14.3754H27.3133V20.1256C27.3133 20.5068 27.1618 20.8725 26.8922 21.1421C26.6226 21.4117 26.257 21.5631 25.8757 21.5631L21.2469 21.5645C20.6905 22.2977 20.0149 22.9446 19.2343 23.4765L11.5003 28.7508L3.76636 23.4779C2.60557 22.6865 1.65569 21.6235 0.999292 20.3813C0.342894 19.1392 -0.000145512 17.7555 4.6303e-08 16.3506V4.65044C0.000173376 4.34416 0.0981648 4.04594 0.279691 3.79925C0.461217 3.55257 0.716789 3.3703 1.00915 3.27903L11.5003 0Z" fill="white"/>
</svg>
