<svg width="12" height="12" viewBox="0 0 12 12" fill="none" xmlns="http://www.w3.org/2000/svg">
<path d="M4.09994 5.26628C5.3886 5.26628 6.43327 4.22161 6.43327 2.93294C6.43327 1.64428 5.3886 0.599609 4.09994 0.599609C2.81127 0.599609 1.7666 1.64428 1.7666 2.93294C1.7666 4.22161 2.81127 5.26628 4.09994 5.26628Z" stroke="#6B7280" stroke-width="1.2" stroke-linecap="round" stroke-linejoin="round"/>
<path d="M0.600098 11.0999V9.93328C0.600098 9.31444 0.84593 8.72095 1.28352 8.28337C1.7211 7.84578 2.31459 7.59995 2.93343 7.59995H5.26676C5.8856 7.59995 6.4791 7.84578 6.91668 8.28337C7.35426 8.72095 7.6001 9.31444 7.6001 9.93328V11.0999M8.18343 0.675781C8.68534 0.80429 9.1302 1.09619 9.44789 1.50546C9.76557 1.91473 9.93801 2.4181 9.93801 2.9362C9.93801 3.4543 9.76557 3.95766 9.44789 4.36693C9.1302 4.77621 8.68534 5.06811 8.18343 5.19661M11.1001 11.0999V9.93328C11.0971 9.41829 10.9239 8.91875 10.6073 8.51252C10.2908 8.10628 9.84875 7.81619 9.3501 7.68745" stroke="#6B7280" stroke-width="1.2" stroke-linecap="round" stroke-linejoin="round"/>
</svg>
