<svg width="62" height="72" viewBox="0 0 62 72" fill="none" xmlns="http://www.w3.org/2000/svg">
<path d="M47.6822 44.1127C47.6619 44.1044 47.6415 44.0969 47.621 44.0899C45.6368 43.3529 44.0559 43.1134 43.8517 43.0662C43.7139 42.6204 43.4823 42.1981 43.156 41.8319C41.5795 40.063 39.6885 39.0891 38.6653 38.6542V37.3641C40.9001 35.7579 42.4668 33.6508 43.1231 30.4501H44.3754C46.3236 30.4501 47.9087 28.8651 47.9087 26.9169V24.7874C47.9087 23.2057 46.8639 21.8633 45.4257 21.4143V18.3267C45.8529 18.038 46.1474 17.5846 46.2339 17.0756L47.0062 12.5341L51.7057 10.7501V12.2908C50.844 12.4161 50.1542 13.1047 50.051 13.9929L49.4945 18.7908C49.3611 19.9439 50.2619 20.9643 51.4307 20.9643H54.0899C55.2509 20.9643 56.1607 19.9516 56.026 18.7905L55.4696 13.9929C55.3665 13.1049 54.6767 12.4161 53.8148 12.2908V8.98119C53.8148 8.97993 53.815 8.9788 53.815 8.97754C53.8148 8.38733 53.4582 7.87068 52.9065 7.66143L47.1358 5.47091C46.5909 5.26391 45.9822 5.53813 45.7754 6.08263C45.5687 6.62727 45.8427 7.23632 46.3872 7.44304L50.431 8.97796L46.1671 10.5966C46.0121 10.4978 45.841 10.4194 45.6551 10.3678C35.8788 7.65664 26.3744 7.65693 16.599 10.3678C16.4131 10.4192 16.2418 10.4978 16.0868 10.5966L11.8229 8.97796L28.7836 2.53972C30.2945 1.96597 31.9593 1.96583 33.4707 2.53972L41.7716 5.69071C42.3165 5.89785 42.9251 5.62349 43.132 5.07899C43.3387 4.53435 43.0647 3.9253 42.5202 3.71858L34.2194 0.567738C32.2251 -0.189246 30.029 -0.189246 28.0349 0.567738L9.3478 7.66128C8.79584 7.87068 8.43922 8.38733 8.43922 8.97754C8.43908 9.56774 8.79556 10.0847 9.34766 10.2943L15.2481 12.5341L16.0206 17.0754C16.1071 17.5845 16.4015 18.038 16.8288 18.3266V21.4134C15.3917 21.8617 14.3457 23.2047 14.3457 24.7873V26.9168C14.3457 28.8649 15.9307 30.45 17.8791 30.45H19.1316C19.7341 33.4702 21.1756 35.5506 23.3313 37.1738V38.6542C22.3079 39.089 20.417 40.0631 18.8407 41.8319C18.5144 42.1979 18.2828 42.6202 18.145 43.066C18.0945 43.0777 16.0102 43.4194 14.3141 44.1127C6.086 47.1979 0.417969 55.1332 0.417969 64.1592V66.619C0.417969 69.5861 2.83194 72 5.79898 72H56.1976C59.1646 72 61.5786 69.5861 61.5786 66.619V64.1592C61.5786 55.1329 55.9104 47.1976 47.6822 44.1127ZM53.3908 14.378L53.91 18.855H51.6107L52.1299 14.378H53.3908ZM39.1787 41.2802C39.936 41.7316 40.8107 42.371 41.581 43.2353C41.9523 43.6521 41.9912 44.2625 41.6917 44.7127C41.6914 44.7133 41.6911 44.7139 41.6907 44.7144C41.688 44.7184 41.6855 44.7223 41.683 44.7264L37.5293 50.9285C37.5292 50.9288 37.5289 50.9291 37.5288 50.9293C37.1712 51.4633 36.4641 51.6146 35.9196 51.2742C34.915 50.6464 33.3761 49.685 32.7619 49.3012L37.5428 45.0713C38.6396 44.1007 39.2191 42.6973 39.1787 41.2802ZM35.8498 53.4913C35.5042 54.0328 35.002 54.8197 34.2727 55.9627L33.5949 54.0043L34.4458 52.8404C34.6765 52.967 35.0975 53.326 35.8498 53.4913ZM36.8878 40.4328C37.3025 41.5023 37.0041 42.7315 36.145 43.4914L30.9983 48.0448L25.8517 43.4914C24.9926 42.7315 24.6941 41.5024 25.1089 40.433C25.266 39.9454 25.4406 39.7324 25.4406 39.3801V38.4854C28.8768 40.199 32.9511 40.3078 36.5558 38.6083V39.3801C36.5558 39.6502 36.6407 39.7888 36.8878 40.4328ZM30.9983 50.6865L32.652 51.7198L31.8821 52.7728H30.1145L29.3445 51.7198L30.9983 50.6865ZM30.3302 54.8822H31.6665L32.8256 58.231C32.5387 58.6807 32.2307 59.1634 31.8987 59.6838C31.4801 60.3455 30.5204 60.3515 30.096 59.6804C29.7647 59.1613 29.4576 58.6798 29.1713 58.231L30.3302 54.8822ZM43.3162 21.2541H42.1152C41.4968 21.2541 40.9309 20.7996 40.9309 20.1413V17.9227C41.7243 18.0789 42.5193 18.2537 43.3162 18.4476V21.2541ZM45.7992 24.7874V26.9169C45.7992 27.702 45.1603 28.3408 44.3752 28.3408H43.3858C43.4231 27.6153 43.3928 28.5642 43.4041 23.3635H44.3709C44.3716 23.3635 44.3723 23.3633 44.3731 23.3633C44.374 23.3633 44.3745 23.3635 44.3754 23.3635C45.1603 23.3635 45.7992 24.0023 45.7992 24.7874ZM44.8984 12.3471L44.1937 16.4904C35.4384 14.2991 26.8861 14.2812 18.0605 16.4903L17.3558 12.3471C26.6202 9.81186 35.6336 9.81186 44.8984 12.3471ZM17.8791 28.3409C17.094 28.3409 16.4551 27.7022 16.4551 26.9171V24.7876C16.4551 24.0025 17.094 23.3636 17.8791 23.3636H17.8835H18.854C18.8702 28.4368 18.8369 27.5386 18.877 28.3409H17.8791ZM18.9381 21.2541V18.4475C19.7351 18.2536 20.53 18.0786 21.3234 17.9226C21.322 20.2894 21.3265 20.1509 21.3195 20.2427C21.2749 20.8099 20.7563 21.2541 20.1392 21.2541C20.1173 21.2541 18.8583 21.2541 18.9381 21.2541ZM20.9667 27.8503L20.9634 23.2573C22.2915 22.9194 23.3135 21.7903 23.4222 20.4087C23.4408 20.1742 23.4293 20.2641 23.4328 17.5513C28.5798 16.7528 33.6745 16.7528 38.8217 17.5514C38.8252 20.2334 38.8137 20.1751 38.8322 20.4082C38.9411 21.7914 39.965 22.9213 41.2948 23.2581C41.2953 29.442 41.2829 27.5229 41.2955 27.8986C40.9586 40.9552 21.2589 40.9921 20.9667 27.8503ZM20.4155 43.2353C21.1857 42.3709 22.0606 41.7315 22.8178 41.2801C22.7776 42.697 23.357 44.1007 24.454 45.0713L29.235 49.3012C28.5895 49.7017 27.7325 50.2358 26.0773 51.2742C25.5329 51.6145 24.8261 51.4633 24.4684 50.9298L20.3139 44.7264C20.3112 44.7223 20.3085 44.7184 20.3059 44.7143C20.3056 44.7139 20.3053 44.7133 20.305 44.7129C20.0115 44.2719 20.0373 43.6599 20.4155 43.2353ZM28.4016 54.0044L27.7238 55.9629C26.9944 54.8197 26.4922 54.0328 26.1466 53.4913C26.8975 53.3263 27.3121 52.9714 27.5507 52.8407L28.4016 54.0044ZM59.4692 66.619C59.4692 68.4231 58.0017 69.8907 56.1976 69.8907H50.723V62.6507C50.723 62.0681 50.251 61.596 49.6684 61.596C49.0858 61.596 48.6137 62.0681 48.6137 62.6507V69.8907H13.3829V62.6507C13.3829 62.0681 12.9108 61.596 12.3282 61.596C11.7456 61.596 11.2735 62.0681 11.2735 62.6507V69.8907H5.79898C3.99491 69.8907 2.52734 68.4231 2.52734 66.619V64.1592C2.52734 56.3054 7.28792 49.3678 14.2892 46.3939L17.4558 51.4152C17.6563 51.7333 17.9988 51.9074 18.3489 51.9074C18.5412 51.9074 18.7359 51.8548 18.9106 51.7447C19.4032 51.4341 19.5508 50.7827 19.2401 50.2899L16.322 45.6627C17.3202 45.3657 18.005 45.2467 18.2044 45.203C18.5846 46.2409 18.0807 44.77 28.3156 60.8116C29.5636 62.785 32.437 62.7787 33.6792 60.815C41.6967 48.2473 43.4291 45.8999 43.4432 45.8886C43.5862 45.6742 43.7156 45.4125 43.7923 45.2028C44.0089 45.2502 44.645 45.3561 45.6747 45.6624L35.4249 61.9154C33.3872 65.1464 28.6088 65.1455 26.5718 61.9154L21.8712 54.4616C21.5605 53.9688 20.9091 53.8214 20.4164 54.1321C19.9238 54.4427 19.7761 55.0941 20.0869 55.5868L24.7876 63.0407C27.653 67.584 34.3436 67.5841 37.2088 63.0407L47.7072 46.3935C54.7085 49.3674 59.4691 56.305 59.4691 64.1589V66.619H59.4692Z" fill="black"/>
</svg>
