<svg width="101" height="100" viewBox="0 0 101 100" fill="none" xmlns="http://www.w3.org/2000/svg">
<g clip-path="url(#clip0_23_444)">
<path d="M97.2307 49.9978C98.7751 48.1993 99.8574 46.0513 100.384 43.7399C100.91 41.4285 100.864 39.0236 100.251 36.7339C99.637 34.4441 98.474 32.3387 96.8625 30.6001C95.251 28.8616 93.2397 27.5425 91.003 26.7573C91.4412 24.4276 91.3044 22.026 90.6044 19.7611C89.9043 17.4962 88.6622 15.4363 86.9858 13.7601C85.3094 12.0839 83.2494 10.8421 80.9844 10.1424C78.7194 9.44263 76.3178 9.30611 73.9881 9.74466C73.2035 7.50744 71.8847 5.49554 70.1461 3.88364C68.4076 2.27174 66.3019 1.10857 64.0118 0.495106C61.7217 -0.118356 59.3165 -0.163562 57.005 0.363412C54.6935 0.890386 52.5456 1.97361 50.7477 3.51904C48.9492 1.97468 46.8012 0.892426 44.4898 0.36618C42.1784 -0.160066 39.7735 -0.114414 37.4838 0.499173C35.194 1.11276 33.0886 2.27575 31.35 3.88726C29.6115 5.49877 28.2924 7.51012 27.5072 9.74683C25.1776 9.30898 22.7763 9.44611 20.5117 10.1463C18.2471 10.8465 16.1875 12.0887 14.5116 13.765C12.8357 15.4414 11.5941 17.5013 10.8944 19.7661C10.1948 22.0309 10.0583 24.4322 10.4967 26.7617C8.26002 27.5469 6.24867 28.8659 4.63716 30.6045C3.02565 32.343 1.86265 34.4485 1.24906 36.7382C0.635475 39.0279 0.589816 41.4328 1.11606 43.7442C1.64231 46.0556 2.72458 48.2037 4.26895 50.0021C2.72411 51.8005 1.64151 53.9487 1.11511 56.2603C0.588714 58.572 0.634412 60.9771 1.24827 63.2671C1.86213 65.557 3.02557 67.6626 4.63763 69.4009C6.24969 71.1393 8.26167 72.458 10.4989 73.2425C10.0601 75.5721 10.1964 77.9736 10.8962 80.2385C11.5959 82.5034 12.8378 84.5633 14.5141 86.2394C16.1905 87.9156 18.2506 89.1572 20.5156 89.8566C22.7806 90.5561 25.1821 90.6921 27.5116 90.253C28.2968 92.4897 29.6158 94.5011 31.3544 96.1126C33.0929 97.7241 35.1983 98.8871 37.4881 99.5007C39.7778 100.114 42.1827 100.16 44.4941 99.6337C46.8055 99.1074 48.9536 98.0252 50.752 96.4808C52.5504 98.0257 54.6986 99.1083 57.0103 99.6347C59.3219 100.161 61.727 100.115 64.017 99.5015C66.3069 98.8876 68.4125 97.7242 70.1508 96.1121C71.8892 94.5001 73.2079 92.4881 73.9925 90.2509C76.3221 90.6895 78.7236 90.5531 80.9885 89.8534C83.2535 89.1536 85.3135 87.9118 86.9897 86.2355C88.666 84.5593 89.9079 82.4993 90.6076 80.2343C91.3074 77.9694 91.4438 75.5679 91.0051 73.2382C93.242 72.4532 95.2535 71.1341 96.8651 69.3956C98.4767 67.657 99.6396 65.5514 100.253 63.2615C100.866 60.9716 100.912 58.5666 100.385 56.2552C99.8584 53.9438 98.7757 51.7959 97.2307 49.9978Z" fill="#7D151E"/>
<path d="M41.7746 69.0843L27.8801 55.1986C27.3528 54.6704 27.0566 53.9546 27.0566 53.2082C27.0566 52.4619 27.3528 51.746 27.8801 51.2179L29.5682 49.5277C30.0964 49.0004 30.8122 48.7042 31.5585 48.7042C32.3049 48.7042 33.0207 49.0004 33.5489 49.5277L43.649 59.6213L67.4355 34.3439C67.9473 33.8008 68.6537 33.483 69.3996 33.4603C70.1456 33.4375 70.87 33.7117 71.414 34.2226L73.1476 35.8586C73.6913 36.3705 74.0095 37.0774 74.0322 37.8238C74.055 38.5703 73.7804 39.2952 73.2689 39.8393L45.8224 69.0215C45.564 69.2969 45.2528 69.5175 44.9074 69.6703C44.562 69.823 44.1894 69.9048 43.8118 69.9106C43.4342 69.9165 43.0592 69.8464 42.7093 69.7044C42.3593 69.5625 42.0414 69.3516 41.7746 69.0843Z" fill="white"/>
</g>
<defs>
<clipPath id="clip0_23_444">
<rect width="100" height="100" fill="white" transform="translate(0.75)"/>
</clipPath>
</defs>
</svg>
