<svg width="24" height="20" viewBox="0 0 24 20" fill="none" xmlns="http://www.w3.org/2000/svg">
<path d="M0 0V2H20.3077V18H7.38462V20H24V18H22.1538V0H0ZM3.69415 3C2.71577 3.00369 1.7784 3.42623 1.0864 4.17553C0.394405 4.92482 0.00389205 5.94009 0 7C0 9.199 1.66523 11 3.69415 11C4.67205 10.9958 5.60875 10.5729 6.30006 9.82365C6.99136 9.07436 7.38121 8.05939 7.38462 7C7.38462 4.803 5.72123 3 3.69415 3ZM9.23077 4V6H13.8462V4H9.23077ZM15.6923 4V6H18.4615V4H15.6923ZM3.69415 5C4.72246 5 5.53846 5.883 5.53846 7C5.53846 8.12 4.72338 9 3.69415 9C2.66031 9 1.84615 8.12 1.84615 7C1.84615 5.883 2.66123 5 3.69415 5ZM9.23077 8V10H18.4615V8H9.23077ZM0 12V20H1.84615V14H4.61538V20H6.46154V14.658L8.36677 15.75C8.90677 16.06 9.55569 16.059 10.0948 15.75V15.752L13.3532 13.885L12.492 12.115L9.23262 13.982L6.37477 12.348C5.97599 12.1195 5.53172 12.0001 5.08062 12H0Z" fill="black" fill-opacity="0.4"/>
</svg>
