<svg width="15" height="18" viewBox="0 0 15 18" fill="none" xmlns="http://www.w3.org/2000/svg">
<path d="M10 0H5V1.66667H10V0ZM6.66667 10.8333H8.33333V5.83333H6.66667V10.8333ZM13.3583 5.325L14.5417 4.14167C14.1833 3.71667 13.7917 3.31667 13.3667 2.96667L12.1833 4.15C10.8562 3.08182 9.20363 2.49961 7.5 2.5C3.35833 2.5 0 5.85833 0 10C0 14.1417 3.35 17.5 7.5 17.5C8.91192 17.5008 10.2953 17.1027 11.4909 16.3516C12.6865 15.6006 13.6457 14.5271 14.2579 13.2548C14.8701 11.9825 15.1104 10.5631 14.9513 9.16021C14.7921 7.75728 14.24 6.42784 13.3583 5.325ZM7.5 15.8333C4.275 15.8333 1.66667 13.225 1.66667 10C1.66667 6.775 4.275 4.16667 7.5 4.16667C10.725 4.16667 13.3333 6.775 13.3333 10C13.3333 13.225 10.725 15.8333 7.5 15.8333Z" fill="#52525B"/>
</svg>
